<svg xmlns="http://www.w3.org/2000/svg" xmlns:xlink="http://www.w3.org/1999/xlink" xmlns:svgjs="http://svgjs.com/svgjs" id="SvgjsSvg1001" width="288" height="288"><defs id="SvgjsDefs1002"></defs><g id="SvgjsG1008"><svg xmlns="http://www.w3.org/2000/svg" viewBox="0 0 120 60" width="288" height="288"><g data-name="Layer 2" fill="#0e153a" class="color000 svgShape"><g data-name="Layer 1" transform="matrix(.65763 0 0 .65763 34.875 4.875)" fill="#0e153a" class="color000 svgShape"><path fill="#000000" d="M 38.1,76.41 C 17.57,76.41 0.16,59.07 0,38.41 A 37.66,37.66 0 0 1 11,11.54 38.29,38.29 0 0 1 38.2,0 V 0 A 37.75,37.75 0 0 1 65,11.13 37.79,37.79 0 0 1 76.41,37.85 38.39,38.39 0 0 1 38.41,76.41 Z M 38.22,2 A 36.3,36.3 0 0 0 12.45,12.95 35.67,35.67 0 0 0 2,38.39 c 0.15,19.58 16.65,36 36.09,36 h 0.26 A 36.39,36.39 0 0 0 74.41,37.86 35.81,35.81 0 0 0 63.59,12.55 35.64,35.64 0 0 0 38.22,2 Z" class="colorf1592a svgShape"></path><path fill="#000000" d="M8.57 49.38V27.06H14v2H11.12V47.42H14v2zM27 38c0 4.07-2.47 6.39-5.82 6.39-3.35 0-5.58-2.61-5.58-6.18 0-3.73 2.34-6.36 5.76-6.36 3.42 0 5.64 2.74 5.64 6.15zm-9.06.18c0 2.47 1.24 4.43 3.37 4.43 2.13 0 3.35-2 3.35-4.52 0-2.29-1.13-4.45-3.35-4.45-2.22 0-3.39 2.09-3.39 4.59zM28.88 32.27A18.52 18.52 0 0132.1 32a5.75 5.75 0 013.48.77 2.56 2.56 0 011.26 2.27 2.82 2.82 0 01-2 2.63v0a3.06 3.06 0 012.45 3 3.15 3.15 0 01-1.17 2.5c-.86.76-2.29 1.13-4.5 1.13A21.41 21.41 0 0128.9 44.14zm2.2 4.79h1.13c1.53 0 2.39-.72 2.39-1.75 0-1.03-.86-1.66-2.27-1.66a6 6 0 00-1.26.09zm0 5.58a9.75 9.75 0 001.17.05c1.42 0 2.68-.54 2.68-2 0-1.46-1.22-2-2.75-2h-1.1zM41.66 32.11h2.21V40c0 3.35-1.62 4.47-4 4.47A5.91 5.91 0 0138 44.15l.27-1.78a4.85 4.85 0 001.37.22c1.26 0 2-.58 2-2.68zM50.16 38.68v1.53h-4.6v-1.53zM60.9 43.88a7.67 7.67 0 01-3.13.54c-3.85 0-6.19-2.41-6.19-6.1a6.1 6.1 0 016.48-6.41 7 7 0 013 .54l-.49 1.76a5.89 5.89 0 00-2.38-.47c-2.47 0-4.25 1.55-4.25 4.47 0 2.66 1.57 4.38 4.23 4.38a6.2 6.2 0 002.41-.45zM67.84 27v22.38h-5.43v-2h2.88V29h-2.88v-2z" class="colorf1592a svgShape"></path></g></g></svg></g></svg>