<svg xmlns="http://www.w3.org/2000/svg" fill="none" viewBox="0 0 48 48"><g transform="translate(12 12)"><path fill="#fff" d="M5 3a2 2 0 0 0-2 2v14a2 2 0 0 0 2 2h5v-2H5V5h12v3h2V5a2 2 0 0 0-2-2H5Zm2 6.5a.5.5 0 0 1 .5-.5h7a.5.5 0 0 1 .5.5v1a.5.5 0 0 1-.5.5h-7a.5.5 0 0 1-.5-.5v-1Zm.5 3.5a.5.5 0 0 0-.5.5v1a.5.5 0 0 0 .5.5h4a.5.5 0 0 0 .5-.5v-1a.5.5 0 0 0-.5-.5h-4Zm12.343-2.704a1.011 1.011 0 0 0-1.43 0l-6.055 6.055c-.184.185-.29.433-.296.694L12 19.967A1.011 1.011 0 0 0 13.033 21l2.922-.062c.26-.006.51-.112.694-.296l6.055-6.055a1.011 1.011 0 0 0 0-1.43l-2.86-2.86Zm-.715 2.145-5.052 5.053-.031 1.461 1.46-.03 5.054-5.053-1.43-1.43Z" clip-rule="evenodd" fill-rule="evenodd" data-follow-fill="#090C14"/></g></svg>